<svg width="32" height="16" viewBox="0 0 107 106" fill="none" xmlns="http://www.w3.org/2000/svg">
<path d="M101.552 39.008C101.834 38.3676 101.986 37.6779 102.001 36.9784C102.016 36.2789 101.893 35.5833 101.639 34.9314C101.385 34.2795 101.005 33.6841 100.52 33.1793C100.036 32.6745 99.4567 32.2701 98.8158 31.9893L29.0825 1.29067C23.7758 -1.04533 17.2425 1.56267 14.9758 6.848L3.18917 34.336C2.08031 36.9361 2.0483 39.87 3.10019 42.4937C4.15207 45.1174 6.20191 47.2166 8.79984 48.3307L41.0025 62.1333L34.3892 78.6667H11.3332V62.6667H0.666504V105.333H11.3332V89.3333H34.3892C38.7785 89.3333 42.6665 86.6987 44.2878 82.624L50.8052 66.336L78.5652 78.2293C79.858 78.7841 81.3176 78.8056 82.6262 78.2892C83.9348 77.7727 84.9863 76.7601 85.5518 75.472L87.2158 71.6853L96.2878 75.312L106.955 48.6453L98.7625 45.376L101.552 39.008ZM77.9038 66.3467L13.0025 38.5333L24.7785 11.056L89.6425 39.6107L77.9038 66.3467Z" fill="#A5A6F6"/>
</svg>
