<svg width="45" height="45" viewBox="0 0 45 45" fill="none" xmlns="http://www.w3.org/2000/svg">
<path d="M22.5 0C9.84375 0 0 10.1613 0 23.2258C0 38.4677 13.3594 45 15.4688 45C16.875 45 16.875 44.2742 16.875 43.5484V39.9194C11.9531 41.371 9.84375 38.4677 9.14062 36.2903C9.14062 36.2903 9.14062 35.5645 7.73438 34.1129C7.03125 33.3871 4.21875 31.9355 7.03125 31.9355C9.14062 31.9355 10.5469 34.8387 10.5469 34.8387C12.6562 37.7419 15.4688 37.0161 16.875 36.2903C16.875 34.8387 18.2812 33.3871 18.2812 33.3871C12.6562 32.6613 8.4375 30.4839 8.4375 22.5C8.4375 19.5968 9.14062 17.4194 10.5469 15.9677C10.5469 15.9677 9.14062 13.0645 10.5469 9.43548C10.5469 9.43548 14.0625 9.43548 16.875 12.3387C18.9844 10.8871 26.0156 10.8871 28.125 12.3387C30.9375 9.43548 34.4531 9.43548 34.4531 9.43548C35.8594 14.5161 34.4531 15.9677 34.4531 15.9677C35.8594 17.4194 36.5625 19.5968 36.5625 22.5C36.5625 30.4839 31.6406 32.6613 26.7188 33.3871C27.4219 34.1129 28.125 35.5645 28.125 37.7419V43.5484C28.125 44.2742 28.125 45 29.5312 45C31.6406 45 45 38.4677 45 23.2258C45 10.1613 35.1562 0 22.5 0Z" fill="#F0F3FA"/>
</svg>
