<svg width="45" height="45" viewBox="0 0 45 45" fill="none" xmlns="http://www.w3.org/2000/svg">
<path d="M4 0C1.79086 0 0 1.79086 0 4V5.35926C0 6.69668 0.668405 7.9456 1.7812 8.68747L20.2812 21.0208C21.6248 21.9165 23.3752 21.9165 24.7188 21.0208L43.2188 8.68747C44.3316 7.9456 45 6.69668 45 5.35926V4C45 1.79086 43.2091 0 41 0H4ZM6.2188 19.1459C3.56058 17.3737 0 19.2793 0 22.4741V41C0 43.2091 1.79086 45 4 45H41C43.2091 45 45 43.2091 45 41V22.4741C45 19.2793 41.4394 17.3737 38.7812 19.1459L24.7188 28.5208C23.3752 29.4165 21.6248 29.4165 20.2812 28.5208L6.2188 19.1459Z" fill="#F0F3FA"/>
</svg>
