<svg width="23" height="30" viewBox="0 0 23 30" fill="none" xmlns="http://www.w3.org/2000/svg">
<path d="M7.12538 23.2004C7.12538 23.2004 5.9797 23.8671 7.9418 24.0921C10.3192 24.3637 11.5341 24.3247 14.1533 23.8296C14.1533 23.8296 14.8433 24.261 15.8051 24.635C9.93154 27.1513 2.51262 24.4891 7.12538 23.2004ZM6.40726 19.9163C6.40726 19.9163 5.12194 20.8677 7.08573 21.0711C9.62535 21.3333 11.6305 21.3547 15.1019 20.6865C15.1019 20.6865 15.5809 21.1732 16.3353 21.439C9.23529 23.5155 1.32729 21.6025 6.40726 19.9163Z" fill="#0074BD"/>
<path d="M12.4572 14.344C13.9053 16.0108 12.0775 17.5092 12.0775 17.5092C12.0775 17.5092 15.752 15.6128 14.0648 13.2368C12.4885 11.0221 11.2801 9.9221 17.8225 6.12769C17.8225 6.12793 7.55271 8.69206 12.4572 14.344Z" fill="#EA2D2E"/>
<path d="M20.2251 25.6299C20.2251 25.6299 21.0733 26.3293 19.2907 26.8698C15.9015 27.8965 5.18156 28.2061 2.20428 26.9109C1.13455 26.4451 3.14135 25.7994 3.77271 25.6631C4.43099 25.5206 4.80687 25.5465 4.80687 25.5465C3.61649 24.7085 -2.88699 27.1928 1.50394 27.9054C13.4777 29.8464 23.3305 27.0313 20.2251 25.6299ZM7.67696 16.5128C7.67696 16.5128 2.22471 17.808 5.74634 18.2788C7.23354 18.4778 10.1969 18.4321 12.959 18.2004C15.2158 18.0108 17.4805 17.6059 17.4805 17.6059C17.4805 17.6059 16.6855 17.9469 16.1096 18.3396C10.5718 19.7963 -0.123609 19.1178 2.95581 17.6287C5.55912 16.3696 7.67696 16.5128 7.67696 16.5128ZM17.4579 21.9797C23.0868 19.0556 20.484 16.2453 18.6673 16.6238C18.2231 16.7164 18.0239 16.7969 18.0239 16.7969C18.0239 16.7969 18.1892 16.5376 18.5045 16.426C22.0983 15.1631 24.8617 20.152 17.3454 22.128C17.3454 22.1275 17.4317 22.0494 17.4579 21.9797Z" fill="#0074BD"/>
<path d="M14.0648 0C14.0648 0 17.1815 3.11859 11.108 7.91256C6.23735 11.7594 9.9974 13.9522 11.1063 16.4587C8.26289 13.8936 6.17726 11.6351 7.57626 9.53339C9.63064 6.44892 15.322 4.95283 14.0648 0Z" fill="#EA2D2E"/>
<path d="M8.2302 29.9059C13.632 30.2513 21.9293 29.7137 22.1257 27.1575C22.1257 27.1575 21.7481 28.1265 17.661 28.8953C13.0499 29.7634 7.36163 29.6622 3.989 29.1054C3.989 29.1056 4.67996 29.6776 8.2302 29.9059Z" fill="#0074BD"/>
</svg>
