<svg width="45" height="45" viewBox="0 0 45 45" fill="none" xmlns="http://www.w3.org/2000/svg">
<path d="M8.81832 0C3.96893 0 0 3.96884 0 8.81832V36.1831C0 41.0325 3.96884 45 8.81832 45H36.1831C41.0326 45 45 41.0326 45 36.1831V8.81832C45 3.96893 41.0326 0 36.1831 0H8.81832ZM11.0363 7.42591C13.3614 7.42591 14.7936 8.95234 14.8379 10.9588C14.8379 12.921 13.3613 14.4903 10.9913 14.4903H10.9477C8.66674 14.4903 7.19248 12.9211 7.19248 10.9588C7.19248 8.95239 8.7114 7.42591 11.0363 7.42591ZM31.0736 16.804C35.5454 16.804 38.8976 19.7267 38.8976 26.0076V37.7329H32.1017V26.7937C32.1017 24.0448 31.1182 22.1694 28.6588 22.1694C26.7813 22.1694 25.6622 23.4335 25.1709 24.6546C24.9914 25.0914 24.9472 25.7016 24.9472 26.3127V37.7329H18.1514C18.1514 37.7329 18.2406 19.2022 18.1514 17.2835H24.9486V20.1793C25.8517 18.786 27.4671 16.804 31.0736 16.804ZM7.59333 17.285H14.3892V37.733H7.59333V17.285Z" fill="#FAF9F9"/>
</svg>
