<svg width="48" height="48" viewBox="0 0 128 128" fill="none" xmlns="http://www.w3.org/2000/svg">
<path d="M25.0962 0.0320001C11.3084 0.0320001 0.0239258 11.3162 0.0239258 25.1043V102.908C0.0239258 116.696 11.3082 127.976 25.0962 127.976H102.9C116.688 127.976 127.968 116.696 127.968 102.908V25.1043C127.968 11.3165 116.688 0.0320001 102.9 0.0320001H25.0962ZM31.4022 21.1453C38.0132 21.1453 42.0852 25.4853 42.2109 31.1901C42.2109 36.769 38.0129 41.231 31.2744 41.231H31.1503C24.6652 41.231 20.4736 36.7693 20.4736 31.1901C20.4736 25.4854 24.7922 21.1453 31.4022 21.1453ZM88.3725 47.809C101.087 47.809 110.618 56.119 110.618 73.9768V107.314H91.2956V76.212C91.2956 68.3963 88.4992 63.0641 81.5067 63.0641C76.1686 63.0641 72.9867 66.658 71.5897 70.1299C71.0794 71.372 70.954 73.1068 70.954 74.8444V107.314H51.632C51.632 107.314 51.8856 54.6278 51.632 49.1725H70.9579V57.406C73.5256 53.4444 78.1185 47.809 88.3725 47.809ZM21.6133 49.1767H40.9353V107.315H21.6133V49.1767Z" fill="#F0F3FA"/>
</svg>
