<svg width="49" height="30" viewBox="0 0 49 30" fill="none" xmlns="http://www.w3.org/2000/svg">
<path d="M24.2304 30.0001C24.0643 30.0001 23.9092 29.9558 23.7653 29.8782L22.2924 29.0034C22.0709 28.8816 22.1816 28.8373 22.2481 28.8151C22.5471 28.7155 22.6025 28.6933 22.9125 28.5161C22.9458 28.494 22.9901 28.505 23.0233 28.5272L24.1528 29.2027C24.1971 29.2249 24.2525 29.2249 24.2857 29.2027L28.7043 26.6446C28.7486 26.6224 28.7708 26.5781 28.7708 26.5228V21.4176C28.7708 21.3622 28.7486 21.3179 28.7043 21.2957L24.2857 18.7487C24.2414 18.7265 24.1861 18.7265 24.1528 18.7487L19.7342 21.2957C19.6899 21.3179 19.6678 21.3733 19.6678 21.4176V26.5228C19.6678 26.5671 19.6899 26.6224 19.7342 26.6446L20.9413 27.3423C21.5947 27.6745 22.0045 27.2869 22.0045 26.8993V21.8605C22.0045 21.7941 22.0598 21.7276 22.1373 21.7276H22.7021C22.7686 21.7276 22.835 21.783 22.835 21.8605V26.8993C22.835 27.7742 22.3588 28.2836 21.5283 28.2836C21.2736 28.2836 21.0742 28.2836 20.5094 28.0067L19.3466 27.3423C19.0587 27.1761 18.8815 26.8661 18.8815 26.5338V21.4286C18.8815 21.0964 19.0587 20.7863 19.3466 20.6202L23.7653 18.0621C24.0421 17.907 24.4186 17.907 24.6955 18.0621L29.1141 20.6202C29.402 20.7863 29.5792 21.0964 29.5792 21.4286V26.5338C29.5792 26.8661 29.402 27.1761 29.1141 27.3423L24.6955 29.9004C24.5515 29.9668 24.3854 30.0001 24.2304 30.0001ZM25.5925 26.4895C23.6545 26.4895 23.2558 25.6036 23.2558 24.8506C23.2558 24.7841 23.3112 24.7177 23.3887 24.7177H23.9646C24.031 24.7177 24.0864 24.762 24.0864 24.8284C24.175 25.4153 24.4297 25.7033 25.6036 25.7033C26.5338 25.7033 26.9325 25.4929 26.9325 24.9945C26.9325 24.7066 26.8217 24.4962 25.371 24.3522C24.1639 24.2304 23.4109 23.9646 23.4109 23.0012C23.4109 22.1042 24.1639 21.5726 25.4264 21.5726C26.8439 21.5726 27.5416 22.0599 27.6301 23.123C27.6301 23.1562 27.6191 23.1894 27.5969 23.2227C27.5748 23.2448 27.5416 23.267 27.5083 23.267H26.9325C26.8771 23.267 26.8217 23.2227 26.8107 23.1673C26.6778 22.5582 26.3345 22.3589 25.4264 22.3589C24.4076 22.3589 24.2857 22.7132 24.2857 22.979C24.2857 23.3002 24.4297 23.3998 25.8029 23.577C27.165 23.7542 27.8073 24.0089 27.8073 24.9613C27.7963 25.9358 26.9989 26.4895 25.5925 26.4895Z" fill="#539E43"/>
<path d="M10.5205 10.0332C10.5205 9.83391 10.4097 9.64565 10.2326 9.54598L5.5371 6.84388C5.45958 6.79958 5.37099 6.77743 5.28239 6.76636H5.23809C5.1495 6.76636 5.06091 6.79958 4.98339 6.84388L0.287929 9.54598C0.110742 9.64565 0 9.83391 0 10.0332L0.0110742 17.2979C0.0110742 17.3976 0.0664452 17.4973 0.155039 17.5416C0.243632 17.5969 0.354374 17.5969 0.431894 17.5416L3.22259 15.9469C3.39978 15.8472 3.51052 15.6589 3.51052 15.4596V12.0598C3.51052 11.8605 3.62126 11.6722 3.79845 11.5726L4.98339 10.886C5.07198 10.8306 5.17165 10.8084 5.27132 10.8084C5.37099 10.8084 5.47065 10.8306 5.54817 10.886L6.73311 11.5726C6.9103 11.6722 7.02104 11.8605 7.02104 12.0598V15.4596C7.02104 15.6589 7.13178 15.8472 7.30897 15.9469L10.0997 17.5416C10.1883 17.5969 10.299 17.5969 10.3876 17.5416C10.4762 17.4973 10.5316 17.3976 10.5316 17.2979L10.5205 10.0332Z" fill="#333333"/>
<path d="M33.0897 0.0332226C33.0011 -0.0110742 32.8904 -0.0110742 32.8129 0.0332226C32.7243 0.0885936 32.6689 0.177187 32.6689 0.276855V7.47508C32.6689 7.54153 32.6357 7.60797 32.5692 7.65227C32.5028 7.68549 32.4364 7.68549 32.3699 7.65227L31.196 6.97674C31.0189 6.87708 30.8084 6.87708 30.6313 6.97674L25.9358 9.68992C25.7586 9.78959 25.6479 9.97785 25.6479 10.1772V15.5925C25.6479 15.7918 25.7586 15.9801 25.9358 16.0797L30.6313 18.7929C30.8084 18.8926 31.0189 18.8926 31.196 18.7929L35.8915 16.0797C36.0687 15.9801 36.1794 15.7918 36.1794 15.5925V2.09302C36.1794 1.88261 36.0687 1.69435 35.8915 1.59468L33.0897 0.0332226ZM32.6578 13.8095C32.6578 13.8649 32.6357 13.9092 32.5914 13.9313L30.9856 14.8616C30.9413 14.8837 30.886 14.8837 30.8417 14.8616L29.2359 13.9313C29.1916 13.9092 29.1695 13.8538 29.1695 13.8095V11.9491C29.1695 11.8937 29.1916 11.8494 29.2359 11.8272L30.8417 10.897C30.886 10.8749 30.9413 10.8749 30.9856 10.897L32.5914 11.8272C32.6357 11.8494 32.6578 11.9048 32.6578 11.9491V13.8095Z" fill="#333333"/>
<path d="M48.7154 11.9044C48.8925 11.8048 48.9922 11.6165 48.9922 11.4172V10.0993C48.9922 9.89999 48.8815 9.71173 48.7154 9.61206L44.0531 6.90996C43.8759 6.81029 43.6655 6.81029 43.4883 6.90996L38.7929 9.62313C38.6157 9.7228 38.5049 9.91106 38.5049 10.1104V15.5257C38.5049 15.725 38.6157 15.9133 38.7929 16.0129L43.4551 18.6708C43.6323 18.7704 43.8427 18.7704 44.0088 18.6708L46.8327 17.0982C46.9213 17.0539 46.9767 16.9543 46.9767 16.8546C46.9767 16.7549 46.9213 16.6552 46.8327 16.611L42.1151 13.8978C42.0265 13.8424 41.9712 13.7538 41.9712 13.6541V11.9598C41.9712 11.8601 42.0265 11.7605 42.1151 11.7162L43.588 10.8745C43.6766 10.8191 43.7873 10.8191 43.8759 10.8745L45.3488 11.7162C45.4374 11.7715 45.4928 11.8601 45.4928 11.9598V13.2887C45.4928 13.3884 45.5481 13.488 45.6367 13.5323C45.7253 13.5877 45.8361 13.5877 45.9247 13.5323L48.7154 11.9044Z" fill="#333333"/>
<path d="M43.6988 11.6502C43.732 11.628 43.7763 11.628 43.8095 11.6502L44.7065 12.1706C44.7398 12.1928 44.7619 12.226 44.7619 12.2703V13.3113C44.7619 13.3556 44.7398 13.3888 44.7065 13.411L43.8095 13.9314C43.7763 13.9536 43.732 13.9536 43.6988 13.9314L42.8018 13.411C42.7686 13.3888 42.7464 13.3556 42.7464 13.3113V12.2703C42.7464 12.226 42.7686 12.1928 42.8018 12.1706L43.6988 11.6502Z" fill="#539E43"/>
<path d="M18.3721 6.93242C18.1949 6.83275 17.9845 6.83275 17.8073 6.93242L13.1451 9.62345C12.9679 9.72311 12.8682 9.91138 12.8682 10.1107V15.5038C12.8682 15.7032 12.979 15.8914 13.1451 15.9911L17.8073 18.6821C17.9845 18.7818 18.1949 18.7818 18.3721 18.6821L23.0344 15.9911C23.2115 15.8914 23.3112 15.7032 23.3112 15.5038V10.1107C23.3112 9.91138 23.2005 9.72311 23.0344 9.62345L18.3721 6.93242Z" fill="url(#paint0_linear_17_164)"/>
<mask id="mask0_17_164" style="mask-type:luminance" maskUnits="userSpaceOnUse" x="12" y="6" width="12" height="13">
<path d="M18.3721 6.93242C18.1949 6.83275 17.9845 6.83275 17.8073 6.93242L13.1451 9.62345C12.9679 9.72311 12.8682 9.91138 12.8682 10.1107V15.5038C12.8682 15.7032 12.979 15.8914 13.1451 15.9911L17.8073 18.6821C17.9845 18.7818 18.1949 18.7818 18.3721 18.6821L23.0344 15.9911C23.2115 15.8914 23.3112 15.7032 23.3112 15.5038V10.1107C23.3112 9.91138 23.2005 9.72311 23.0344 9.62345L18.3721 6.93242Z" fill="white"/>
</mask>
<g mask="url(#mask0_17_164)">
<path d="M23.0454 9.6236L18.361 6.93257C18.3167 6.91042 18.2614 6.88827 18.2171 6.8772L12.9679 15.8694C13.0122 15.9248 13.0676 15.9691 13.1229 16.0023L17.8073 18.6934C17.9402 18.7709 18.0952 18.793 18.2392 18.7487L23.1672 9.73434C23.134 9.69004 23.0897 9.65682 23.0454 9.6236Z" fill="url(#paint1_linear_17_164)"/>
</g>
<mask id="mask1_17_164" style="mask-type:luminance" maskUnits="userSpaceOnUse" x="12" y="6" width="12" height="13">
<path d="M18.3721 6.93242C18.1949 6.83275 17.9845 6.83275 17.8073 6.93242L13.1451 9.62345C12.9679 9.72311 12.8682 9.91138 12.8682 10.1107V15.5038C12.8682 15.7032 12.979 15.8914 13.1451 15.9911L17.8073 18.6821C17.9845 18.7818 18.1949 18.7818 18.3721 18.6821L23.0344 15.9911C23.2115 15.8914 23.3112 15.7032 23.3112 15.5038V10.1107C23.3112 9.91138 23.2005 9.72311 23.0344 9.62345L18.3721 6.93242Z" fill="white"/>
</mask>
<g mask="url(#mask1_17_164)">
<path fill-rule="evenodd" clip-rule="evenodd" d="M23.0564 15.9912C23.1893 15.9137 23.289 15.7808 23.3333 15.6368L18.1949 6.86603C18.062 6.84389 17.918 6.85496 17.7962 6.93248L13.145 9.61243L18.1616 18.7597C18.2281 18.7486 18.3056 18.7265 18.3721 18.6933L23.0564 15.9912Z" fill="url(#paint2_linear_17_164)"/>
<path fill-rule="evenodd" clip-rule="evenodd" d="M23.0565 15.9912L18.3832 18.6822C18.3167 18.7154 18.2503 18.7376 18.1727 18.7487L18.2613 18.9148L23.4441 15.9137V15.8472L23.3112 15.6257C23.289 15.7808 23.1894 15.9137 23.0565 15.9912Z" fill="url(#paint3_linear_17_164)"/>
<path fill-rule="evenodd" clip-rule="evenodd" d="M23.0565 15.9912L18.3832 18.6822C18.3167 18.7154 18.2503 18.7376 18.1727 18.7487L18.2613 18.9148L23.4441 15.9137V15.8472L23.3112 15.6257C23.289 15.7808 23.1894 15.9137 23.0565 15.9912Z" fill="url(#paint4_linear_17_164)"/>
</g>
<defs>
<linearGradient id="paint0_linear_17_164" x1="724.958" y1="214.937" x2="213.912" y2="1017.91" gradientUnits="userSpaceOnUse">
<stop stop-color="#41873F"/>
<stop offset="0.3288" stop-color="#418B3D"/>
<stop offset="0.6352" stop-color="#419637"/>
<stop offset="0.9319" stop-color="#3FA92D"/>
<stop offset="1" stop-color="#3FAE2A"/>
</linearGradient>
<linearGradient id="paint1_linear_17_164" x1="454.36" y1="663.061" x2="1734.19" y2="-32.2684" gradientUnits="userSpaceOnUse">
<stop offset="0.1376" stop-color="#41873F"/>
<stop offset="0.4032" stop-color="#54A044"/>
<stop offset="0.7136" stop-color="#66B848"/>
<stop offset="0.9081" stop-color="#6CC04A"/>
</linearGradient>
<linearGradient id="paint2_linear_17_164" x1="-31.5692" y1="602.011" x2="1047.25" y2="602.011" gradientUnits="userSpaceOnUse">
<stop offset="0.0919165" stop-color="#6CC04A"/>
<stop offset="0.2864" stop-color="#66B848"/>
<stop offset="0.5968" stop-color="#54A044"/>
<stop offset="0.8624" stop-color="#41873F"/>
</linearGradient>
<linearGradient id="paint3_linear_17_164" x1="-529.31" y1="180.983" x2="549.505" y2="180.983" gradientUnits="userSpaceOnUse">
<stop offset="0.0919165" stop-color="#6CC04A"/>
<stop offset="0.2864" stop-color="#66B848"/>
<stop offset="0.5968" stop-color="#54A044"/>
<stop offset="0.8624" stop-color="#41873F"/>
</linearGradient>
<linearGradient id="paint4_linear_17_164" x1="706.676" y1="-678.589" x2="433.37" y2="753.53" gradientUnits="userSpaceOnUse">
<stop stop-color="#41873F"/>
<stop offset="0.3288" stop-color="#418B3D"/>
<stop offset="0.6352" stop-color="#419637"/>
<stop offset="0.9319" stop-color="#3FA92D"/>
<stop offset="1" stop-color="#3FAE2A"/>
</linearGradient>
</defs>
</svg>
