<svg width="26" height="30" viewBox="0 0 26 30" fill="none" xmlns="http://www.w3.org/2000/svg">
<path d="M12.6532 0C6.18222 5.45553e-07 6.58631 3.31998 6.58631 3.31998L6.59352 6.75945H12.7686V7.79215H4.14079C4.14079 7.79215 0 7.23657 0 14.9613C-4.62126e-07 22.686 3.61417 22.412 3.61417 22.412H5.77113V18.8275C5.77113 18.8275 5.65487 14.5516 9.32759 14.5516H15.4522C15.4522 14.5516 18.8932 14.6174 18.8932 10.6171V4.00276C18.8932 4.00276 19.4157 0 12.6532 0ZM9.24824 2.31289C9.86262 2.31289 10.3592 2.90037 10.3592 3.62723C10.3592 4.35409 9.86262 4.94157 9.24824 4.94157C8.63386 4.94157 8.1373 4.35409 8.1373 3.62723C8.1373 2.90037 8.63386 2.31289 9.24824 2.31289Z" fill="url(#paint0_linear_17_169)"/>
<path d="M12.837 30.0001C19.3079 30.0001 18.9039 26.6802 18.9039 26.6802L18.8966 23.2407H12.7215V22.208H21.3494C21.3494 22.208 25.4902 22.7636 25.4902 15.0389C25.4902 7.31418 21.876 7.58812 21.876 7.58812H19.719V11.1727C19.719 11.1727 19.8353 15.4485 16.1626 15.4485H10.038C10.038 15.4485 6.59691 15.3827 6.59691 19.383V25.9974C6.59691 25.9974 6.07447 30.0001 12.837 30.0001ZM16.2419 27.6872C15.6275 27.6872 15.131 27.0998 15.131 26.3729C15.131 25.646 15.6275 25.0586 16.2419 25.0586C16.8563 25.0586 17.3529 25.646 17.3529 26.3729C17.3529 27.0998 16.8563 27.6872 16.2419 27.6872Z" fill="url(#paint1_linear_17_169)"/>
<defs>
<linearGradient id="paint0_linear_17_169" x1="627.112" y1="688.096" x2="4390.75" y2="3825.27" gradientUnits="userSpaceOnUse">
<stop stop-color="#387EB8"/>
<stop offset="1" stop-color="#366994"/>
</linearGradient>
<linearGradient id="paint1_linear_17_169" x1="932.181" y1="1183.76" x2="4943.19" y2="4376.2" gradientUnits="userSpaceOnUse">
<stop stop-color="#FFE052"/>
<stop offset="1" stop-color="#FFC331"/>
</linearGradient>
</defs>
</svg>
