<svg width="25" height="23" viewBox="0 0 25 23" fill="none" xmlns="http://www.w3.org/2000/svg">
<path d="M20.555 7.23152C20.2957 7.14198 20.0269 7.05726 19.7502 6.97714C19.7957 6.79096 19.8375 6.60719 19.8746 6.42655C20.4838 3.46031 20.0855 1.07069 18.7253 0.283927C17.4211 -0.470476 15.2882 0.31611 13.1341 2.19656C12.9269 2.37738 12.7192 2.56883 12.5116 2.76947C12.3732 2.63672 12.2351 2.50844 12.0973 2.38573C9.83972 0.37503 7.57682 -0.472306 6.21803 0.316735C4.91508 1.07333 4.52922 3.3198 5.07759 6.13092C5.13054 6.40244 5.19244 6.67973 5.26244 6.96165C4.94218 7.05284 4.63299 7.15006 4.33716 7.25348C1.69036 8.17911 0 9.6298 0 11.1345C0 12.6887 1.81461 14.2475 4.57145 15.1926C4.78901 15.2672 5.01476 15.3378 5.2474 15.4047C5.17188 15.7096 5.1062 16.0084 5.05107 16.2998C4.5282 19.0622 4.93653 21.2556 6.236 22.0074C7.57825 22.7838 9.83091 21.9857 12.0244 20.0624C12.1978 19.9104 12.3718 19.7492 12.5461 19.5802C12.772 19.7984 12.9976 20.005 13.222 20.1987C15.3466 22.0327 17.4451 22.7732 18.7434 22.0193C20.0843 21.2407 20.5201 18.8844 19.9543 16.0177C19.9111 15.7988 19.8608 15.5751 19.8044 15.3474C19.9625 15.3005 20.1179 15.2521 20.2693 15.2017C23.1353 14.2492 25 12.7094 25 11.1345C25 9.62436 23.2551 8.16389 20.555 7.23152ZM19.9334 14.1849C19.7967 14.2303 19.6564 14.2742 19.5135 14.3167C19.1971 13.312 18.7701 12.2436 18.2475 11.1398C18.7462 10.0622 19.1567 9.00752 19.4642 8.00932C19.72 8.08355 19.9682 8.16184 20.2074 8.24446C22.5208 9.04332 23.932 10.2245 23.932 11.1345C23.932 12.104 22.408 13.3624 19.9334 14.1849ZM18.9066 16.2258C19.1568 17.4934 19.1925 18.6395 19.0268 19.5354C18.8779 20.3405 18.5785 20.8772 18.2082 21.0922C17.4204 21.5496 15.7355 20.955 13.9185 19.3866C13.7102 19.2068 13.5004 19.0148 13.2899 18.8116C13.9943 18.0388 14.6983 17.1404 15.3854 16.1427C16.594 16.0351 17.7358 15.8592 18.7713 15.6191C18.8223 15.8255 18.8676 16.0279 18.9066 16.2258ZM8.52306 21.0132C7.75331 21.2858 7.14024 21.2937 6.76964 21.0793C5.98107 20.6231 5.65324 18.862 6.10041 16.4996C6.15163 16.2291 6.2126 15.9512 6.28286 15.6671C7.30698 15.8943 8.44043 16.0577 9.65189 16.1563C10.3436 17.1326 11.068 18.03 11.798 18.8158C11.6385 18.9702 11.4796 19.1173 11.3216 19.2558C10.3517 20.1063 9.37968 20.7097 8.52306 21.0132ZM4.91686 14.1789C3.69783 13.761 2.69112 13.2178 2.00106 12.6251C1.381 12.0924 1.06795 11.5636 1.06795 11.1345C1.06795 10.2214 2.42514 9.05671 4.68871 8.26508C4.96336 8.16902 5.25087 8.0785 5.54924 7.99347C5.86207 9.01422 6.27245 10.0814 6.76769 11.1606C6.26604 12.2558 5.84984 13.34 5.53393 14.3728C5.32123 14.3114 5.11515 14.2469 4.91686 14.1789ZM6.12569 5.92519C5.65586 3.51669 5.96789 1.6998 6.75309 1.24388C7.58946 0.758191 9.43891 1.45068 11.3882 3.18682C11.5128 3.29779 11.6379 3.41393 11.7633 3.5341C11.0369 4.31644 10.3192 5.20712 9.6336 6.1777C8.45783 6.28701 7.33234 6.46261 6.29755 6.69776C6.23249 6.43525 6.17486 6.17734 6.12569 5.92519ZM16.9096 8.5962C16.6622 8.1676 16.4082 7.74913 16.1493 7.34209C16.947 7.44323 17.7112 7.5775 18.4289 7.74181C18.2134 8.43448 17.9449 9.15871 17.6288 9.90115C17.402 9.46929 17.1621 9.03386 16.9096 8.5962ZM12.5119 4.2997C13.0045 4.83503 13.4979 5.43271 13.9831 6.08119C13.4941 6.05803 12.9991 6.04597 12.5 6.04597C12.0056 6.04597 11.5142 6.05776 11.0283 6.08052C11.514 5.43807 12.0116 4.84119 12.5119 4.2997ZM8.08612 8.60361C7.83902 9.03341 7.60361 9.46648 7.3804 9.90034C7.06939 9.16049 6.80333 8.43296 6.58599 7.73047C7.29928 7.57036 8.05991 7.43944 8.8525 7.34021C8.58995 7.751 8.3339 8.17264 8.08612 8.60361ZM8.87532 15.0053C8.05644 14.9137 7.28437 14.7895 6.57127 14.6338C6.79207 13.9188 7.06401 13.1757 7.3816 12.4199C7.60539 12.8535 7.84173 13.2867 8.09035 13.7174C8.3436 14.1563 8.60601 14.5861 8.87532 15.0053ZM12.5415 18.0449C12.0353 17.4971 11.5304 16.8911 11.0373 16.2393C11.516 16.2581 12.004 16.2678 12.5 16.2678C13.0096 16.2678 13.5133 16.2562 14.0091 16.2341C13.5223 16.8977 13.0307 17.5046 12.5415 18.0449ZM17.639 12.3814C17.9731 13.1453 18.2548 13.8845 18.4784 14.5874C17.7536 14.7532 16.971 14.8868 16.1464 14.9861C16.4059 14.5736 16.6621 14.1479 16.9138 13.7101C17.1685 13.2671 17.4103 12.8235 17.639 12.3814ZM15.9887 13.1749C15.5979 13.8546 15.1967 14.5034 14.7894 15.1159C14.0476 15.1691 13.2811 15.1965 12.5 15.1965C11.722 15.1965 10.9653 15.1722 10.2365 15.1248C9.8128 14.5043 9.40287 13.8535 9.01456 13.1807C8.62728 12.5098 8.27093 11.8331 7.94795 11.1603C8.27084 10.4858 8.62635 9.80844 9.0114 9.13867L9.01132 9.1388C9.39739 8.46724 9.80372 7.81965 10.2235 7.20304C10.967 7.14667 11.7294 7.11725 12.5 7.11725C13.2739 7.11725 14.0374 7.14689 14.7807 7.20376C15.1941 7.81586 15.5976 8.46135 15.9852 9.133C16.3772 9.81219 16.7373 10.4851 17.063 11.145C16.7383 11.8163 16.379 12.496 15.9887 13.1749ZM18.1919 1.21201C19.029 1.69627 19.3546 3.6493 18.8286 6.21033C18.7951 6.37374 18.7573 6.54019 18.7162 6.70887C17.679 6.46882 16.5528 6.29018 15.3736 6.17921C14.6866 5.19797 13.9748 4.30591 13.2602 3.5336C13.4523 3.34823 13.6442 3.17147 13.8352 3.00466C15.6809 1.3935 17.4059 0.757387 18.1919 1.21201ZM12.5 8.89526C13.7329 8.89526 14.7324 9.8978 14.7324 11.1345C14.7324 12.3712 13.7329 13.3738 12.5 13.3738C11.2671 13.3738 10.2676 12.3712 10.2676 11.1345C10.2676 9.8978 11.2671 8.89526 12.5 8.89526Z" fill="#00D8FF"/>
</svg>
