<svg width="25" height="25" viewBox="0 0 30 30" fill="none" xmlns="http://www.w3.org/2000/svg">
<path d="M28.5943 0H1.40571C0.62936 0 0 0.62936 0 1.40571V28.5943C0 29.3706 0.62936 30 1.40571 30H28.5943C29.3706 30 30 29.3706 30 28.5943V1.40571C30 0.62936 29.3706 0 28.5943 0Z" fill="#3178C6"/>
<path fill-rule="evenodd" clip-rule="evenodd" d="M19.3393 24.433C18.5055 24.1322 17.4053 24.6736 17.4053 25.5599V25.8657C17.4053 26.3157 17.658 26.7349 18.0802 26.8904C18.4741 27.0354 18.8808 27.1447 19.2953 27.2166C20.0537 27.3566 20.8235 27.4255 21.5946 27.4223C22.3462 27.4259 23.0961 27.3501 23.8318 27.1962C24.4923 27.0628 25.1225 26.8085 25.6907 26.4462C26.2182 26.1057 26.653 25.6397 26.9561 25.0898C27.4989 23.9512 27.5705 22.6445 27.1553 21.4534C26.9802 21.008 26.7191 20.6013 26.3871 20.2566C26.0307 19.89 25.6259 19.5739 25.1839 19.317C24.675 19.0189 24.1463 18.7562 23.6014 18.5305C23.1728 18.3527 22.7871 18.1798 22.4443 18.012C22.1397 17.8662 21.8483 17.6945 21.5732 17.4987C21.3577 17.3477 21.1706 17.1598 21.0203 16.9437C20.8905 16.7476 20.823 16.5168 20.8264 16.2816C20.8236 16.0651 20.8839 15.8525 21 15.6698C21.1261 15.4786 21.2943 15.3188 21.4918 15.2027C21.7331 15.0606 21.9958 14.9582 22.2696 14.8995C22.6058 14.8248 22.9495 14.7888 23.2939 14.7923C23.5836 14.7933 23.8728 14.8141 24.1596 14.8545C24.4694 14.8963 24.7758 14.9597 25.0768 15.0441C25.3829 15.1289 25.6823 15.2364 25.9725 15.3655V15.3655C26.3295 15.5247 26.7771 15.2843 26.7771 14.8934V13.5661C26.7771 13.0751 26.4752 12.627 26.0006 12.5006C25.7185 12.4255 25.4322 12.3657 25.1432 12.3216C24.4692 12.2235 23.7886 12.1773 23.1075 12.1834C22.363 12.1794 21.6206 12.2639 20.8961 12.4352C20.2411 12.5848 19.6184 12.8508 19.0575 13.2205C18.5364 13.5676 18.1062 14.0346 17.8028 14.5823C17.4814 15.1905 17.3223 15.8714 17.3411 16.5591C17.3173 17.4685 17.6169 18.3569 18.1864 19.0662C18.8852 19.8528 19.7663 20.4558 20.7525 20.8223C21.2025 21.008 21.6221 21.1898 22.0114 21.3677C22.3626 21.524 22.7002 21.7092 23.0207 21.9216C23.2792 22.0897 23.5062 22.3019 23.6914 22.5484C23.8543 22.772 23.9407 23.0421 23.9378 23.3187C23.9393 23.526 23.8861 23.73 23.7836 23.9102C23.6696 24.1038 23.5095 24.2661 23.3175 24.3827C23.0772 24.5291 22.8144 24.6349 22.5396 24.6955C22.1817 24.7756 21.8156 24.8133 21.4489 24.808C20.7292 24.8067 20.0153 24.6798 19.3393 24.433V24.433ZM11.8832 17.2727C11.8832 16.0892 12.8426 15.1298 14.0261 15.1298H14.8152C15.5628 15.1298 16.1689 14.5237 16.1689 13.7761V13.7761C16.1689 13.0284 15.5628 12.4223 14.8152 12.4223H5.57302C4.82536 12.4223 4.21927 13.0284 4.21927 13.7761V13.7761C4.21927 14.5237 4.82536 15.1298 5.57302 15.1298H6.35248C7.53062 15.1298 8.4857 16.0849 8.4857 17.263V25.4889C8.4857 26.4271 9.24625 27.1877 10.1844 27.1877V27.1877C11.1226 27.1877 11.8832 26.4271 11.8832 25.4889V17.2727Z" fill="white"/>
</svg>
