<?xml version="1.0" standalone="no"?>
<!DOCTYPE svg PUBLIC "-//W3C//DTD SVG 20010904//EN"
 "http://www.w3.org/TR/2001/REC-SVG-20010904/DTD/svg10.dtd">
<svg version="1.0" xmlns="http://www.w3.org/2000/svg"
 width="512.000000pt" height="512.000000pt" viewBox="0 0 512.000000 512.000000"
 preserveAspectRatio="xMidYMid meet">

<g transform="translate(0.000000,512.000000) scale(0.100000,-0.100000)"
fill="#000000" stroke="none">
<path d="M2337 4925 c-242 -39 -476 -143 -620 -275 -39 -36 -57 -46 -68 -39
-36 23 -88 30 -123 15 -39 -16 -56 -42 -56 -85 l0 -30 -49 6 c-46 5 -52 3 -82
-26 -29 -30 -31 -36 -25 -78 3 -26 24 -84 46 -129 23 -48 40 -97 40 -118 0
-93 43 -305 89 -438 18 -54 19 -57 2 -72 -43 -39 -115 -10 -153 61 -46 86 -53
140 -51 367 2 221 -3 252 -46 276 -53 28 -129 -9 -157 -76 -11 -25 -20 -32
-53 -38 -42 -6 -96 -45 -106 -75 -4 -13 -13 -16 -34 -13 -23 3 -33 -2 -54 -30
-40 -53 -51 -109 -51 -263 1 -170 18 -258 74 -372 65 -131 151 -203 279 -233
70 -16 214 -8 302 18 65 20 67 20 95 1 16 -10 26 -19 21 -19 -34 0 -204 -34
-214 -42 -25 -21 -13 -53 43 -109 l56 -56 -29 -6 c-55 -11 -65 -67 -33 -193
12 -47 19 -103 18 -140 -3 -52 1 -67 20 -91 12 -15 35 -50 50 -77 35 -63 71
-106 87 -106 9 0 14 -31 20 -112 4 -62 11 -121 16 -130 5 -10 26 -26 47 -37
20 -11 62 -32 92 -48 45 -23 68 -28 125 -28 51 -1 96 -9 167 -33 103 -33 312
-76 436 -88 68 -6 73 -8 69 -28 -63 -285 -79 -407 -80 -611 0 -184 14 -297 50
-408 25 -74 25 -81 12 -135 -7 -31 -12 -64 -10 -72 5 -27 53 -69 97 -86 30
-11 46 -25 55 -46 7 -17 23 -45 36 -64 l23 -35 -20 -59 c-13 -39 -20 -86 -20
-136 l0 -76 36 22 36 23 30 -37 30 -37 32 45 c17 24 44 63 60 86 33 46 46 123
26 159 -16 31 -69 61 -106 61 -23 0 -34 6 -42 25 -18 39 -15 45 21 45 32 0 33
1 45 66 7 36 18 80 26 98 13 31 14 32 84 34 84 2 168 31 268 92 l69 42 142 1
142 2 30 29 c31 30 64 102 76 169 4 21 14 38 24 41 52 14 98 19 201 20 96 1
121 5 155 23 51 27 83 63 125 137 32 57 32 59 20 115 -6 31 -18 74 -25 96 -7
22 -18 68 -24 102 -19 104 -62 183 -98 183 -7 0 -28 -20 -45 -45 -18 -25 -34
-45 -37 -44 -3 0 -23 23 -44 50 l-38 50 -32 -24 c-43 -32 -93 -117 -107 -180
-6 -29 -18 -76 -27 -105 -14 -49 -14 -102 -1 -211 5 -42 -19 -34 -26 8 -7 46
-12 50 -88 71 -55 15 -59 18 -85 70 -22 44 -42 64 -95 100 -57 39 -248 211
-248 224 0 12 327 -77 382 -105 20 -10 54 -21 77 -25 38 -6 42 -4 99 50 67 64
112 150 115 219 l2 42 -36 -2 c-33 -2 -35 0 -31 26 6 44 -19 45 -120 5 -111
-43 -131 -57 -160 -112 -13 -23 -26 -42 -29 -42 -19 0 -315 102 -378 131 l-75
33 60 18 c32 10 122 32 199 49 244 55 412 126 560 237 157 117 263 263 310
425 23 78 24 315 3 372 -15 40 -15 40 18 77 43 48 62 113 42 148 -16 28 -38
30 -173 15 -62 -7 -76 -5 -112 14 -23 11 -44 25 -47 29 -3 5 32 16 77 25 111
22 233 83 286 144 71 80 86 149 85 383 -1 275 -30 419 -95 475 -38 32 -76 32
-123 0 l-37 -25 -42 31 c-33 24 -50 30 -77 26 -31 -3 -43 3 -115 67 -239 212
-473 316 -835 371 -150 23 -556 29 -673 10z m161 -32 c-16 -2 -40 -2 -55 0
-16 2 -3 4 27 4 30 0 43 -2 28 -4z m270 0 c-21 -2 -57 -2 -80 0 -24 2 -7 4 37
4 44 0 63 -2 43 -4z m-385 -10 c-7 -2 -19 -2 -25 0 -7 3 -2 5 12 5 14 0 19 -2
13 -5z m515 0 c-10 -2 -28 -2 -40 0 -13 2 -5 4 17 4 22 1 32 -1 23 -4z m-581
-9 c-3 -3 -12 -4 -19 -1 -8 3 -5 6 6 6 11 1 17 -2 13 -5z m676 -1 c-7 -2 -21
-2 -30 0 -10 3 -4 5 12 5 17 0 24 -2 18 -5z m-726 -9 c-3 -3 -12 -4 -19 -1 -8
3 -5 6 6 6 11 1 17 -2 13 -5z m786 -1 c-7 -2 -19 -2 -25 0 -7 3 -2 5 12 5 14
0 19 -2 13 -5z m64 -9 c-3 -3 -12 -4 -19 -1 -8 3 -5 6 6 6 11 1 17 -2 13 -5z
m-930 -10 c-3 -3 -12 -4 -19 -1 -8 3 -5 6 6 6 11 1 17 -2 13 -5z m980 0 c-3
-3 -12 -4 -19 -1 -8 3 -5 6 6 6 11 1 17 -2 13 -5z m120 -30 c-3 -3 -12 -4 -19
-1 -8 3 -5 6 6 6 11 1 17 -2 13 -5z m-1257 -24 c-8 -5 -19 -10 -25 -10 -5 0
-3 5 5 10 8 5 20 10 25 10 6 0 3 -5 -5 -10z m1490 -65 c17 -9 30 -18 30 -21 0
-4 -59 23 -69 32 -10 9 13 3 39 -11z m-1730 -69 c0 -2 -8 -10 -17 -17 -16 -13
-17 -12 -4 4 13 16 21 21 21 13z m-50 -39 c0 -2 -12 -14 -27 -28 l-28 -24 24
28 c23 25 31 32 31 24z m237 -19 c-3 -8 -6 -5 -6 6 -1 11 2 17 5 13 3 -3 4
-12 1 -19z m1734 5 c13 -16 12 -17 -3 -4 -17 13 -22 21 -14 21 2 0 10 -8 17
-17z m-1766 -43 l20 -25 -22 19 c-13 11 -23 24 -23 29 0 6 1 8 3 6 1 -2 11
-15 22 -29z m1806 13 c13 -16 12 -17 -3 -4 -10 7 -18 15 -18 17 0 8 8 3 21
-13z m-2036 -43 c10 -11 16 -20 13 -20 -3 0 -13 9 -23 20 -10 11 -16 20 -13
20 3 0 13 -9 23 -20z m2105 -15 c19 -19 32 -35 29 -35 -3 0 -20 16 -39 35 -19
19 -32 35 -29 35 3 0 20 -16 39 -35z m-2040 -75 c6 -11 8 -20 6 -20 -3 0 -10
9 -16 20 -6 11 -8 20 -6 20 3 0 10 -9 16 -20z m2010 -3 c0 -2 -12 -14 -27 -28
l-28 -24 24 28 c23 25 31 32 31 24z m-1970 -68 c12 -23 20 -43 18 -45 -3 -2
-14 17 -26 41 -27 56 -20 60 8 4z m2037 -11 c-3 -7 -5 -2 -5 12 0 14 2 19 5
13 2 -7 2 -19 0 -25z m50 -171 c-2 -23 -3 -1 -3 48 0 50 1 68 3 42 2 -26 2
-67 0 -90z m-852 12 c-3 -4 17 -26 44 -49 l50 -42 -70 -87 -69 -86 80 -79 c44
-43 80 -82 80 -86 0 -8 -67 -70 -76 -70 -17 0 -115 48 -146 72 l-36 28 -32
-26 c-30 -26 -36 -27 -173 -30 -78 -1 -136 0 -129 3 10 4 8 11 -7 27 l-21 22
68 47 c115 79 114 75 29 140 -119 91 -116 83 -48 151 54 54 60 57 82 46 31
-16 95 -65 136 -103 17 -16 36 -26 42 -23 15 10 14 26 -2 20 -7 -2 -30 15 -52
38 l-40 43 40 -37 c22 -20 48 -36 58 -34 20 3 118 96 112 106 -3 4 5 16 18 26
21 19 21 19 7 0 -14 -18 -13 -19 3 -13 10 4 23 7 29 7 6 0 5 7 -3 18 -11 14
-10 14 8 -2 13 -10 20 -22 18 -27z m-465 -44 c-41 -41 -77 -75 -79 -75 -3 0
28 34 69 75 41 41 77 75 79 75 3 0 -28 -34 -69 -75z m510 20 c13 -14 21 -25
18 -25 -2 0 -15 11 -28 25 -13 14 -21 25 -18 25 2 0 15 -11 28 -25z m-1203
-17 c-3 -8 -6 -5 -6 6 -1 11 2 17 5 13 3 -3 4 -12 1 -19z m854 5 c13 -16 12
-17 -3 -4 -17 13 -22 21 -14 21 2 0 10 -8 17 -17z m189 4 c0 -2 -17 -19 -37
-38 l-38 -34 34 38 c33 34 41 42 41 34z m229 -66 c-2 -6 -10 2 -17 17 -11 25
-11 25 4 10 9 -9 15 -21 13 -27z m-1709 -53 c-9 -22 -9 -21 -8 7 0 17 -2 39
-6 50 -4 11 0 8 8 -7 12 -19 13 -33 6 -50z m2437 -10 c-2 -13 -4 -3 -4 22 0
25 2 35 4 23 2 -13 2 -33 0 -45z m38 -86 c-1 -90 -5 -126 -19 -156 -9 -21 -19
-36 -21 -34 -3 3 0 60 5 129 5 68 10 142 10 164 0 31 3 37 13 27 8 -9 12 -49
12 -130z m-775 125 c0 -2 -10 -12 -22 -23 l-23 -19 19 23 c18 21 26 27 26 19z
m-605 -47 c10 -11 16 -20 13 -20 -3 0 -13 9 -23 20 -10 11 -16 20 -13 20 3 0
13 -9 23 -20z m565 -4 c0 -2 -8 -10 -17 -17 -16 -13 -17 -12 -4 4 13 16 21 21
21 13z m-1183 -28 c-3 -8 -6 -5 -6 6 -1 11 2 17 5 13 3 -3 4 -12 1 -19z m-470
-20 c-3 -8 -6 -5 -6 6 -1 11 2 17 5 13 3 -3 4 -12 1 -19z m1144 5 c13 -16 12
-17 -3 -4 -17 13 -22 21 -14 21 2 0 10 -8 17 -17z m1276 -45 c-2 -13 -4 -5 -4
17 -1 22 1 32 4 23 2 -10 2 -28 0 -40z m-807 38 c0 -2 -8 -10 -17 -17 -16 -13
-17 -12 -4 4 13 16 21 21 21 13z m-1133 -38 c-3 -7 -5 -2 -5 12 0 14 2 19 5
13 2 -7 2 -19 0 -25z m704 15 c13 -16 12 -17 -3 -4 -17 13 -22 21 -14 21 2 0
10 -8 17 -17z m-1174 -25 c-3 -8 -6 -5 -6 6 -1 11 2 17 5 13 3 -3 4 -12 1 -19z
m1207 -18 c-6 -6 -10 -3 -10 10 0 13 4 16 10 10 7 -7 7 -13 0 -20z m-1157 -12
c-3 -8 -6 -5 -6 6 -1 11 2 17 5 13 3 -3 4 -12 1 -19z m1588 -38 c33 -33 57
-60 54 -60 -2 0 -31 27 -64 60 -33 33 -57 60 -54 60 2 0 31 -27 64 -60z
m-1628 28 c-3 -8 -6 -5 -6 6 -1 11 2 17 5 13 3 -3 4 -12 1 -19z m470 -80 c-2
-18 -4 -4 -4 32 0 36 2 50 4 33 2 -18 2 -48 0 -65z m703 88 c0 -2 -8 -10 -17
-17 -16 -13 -17 -12 -4 4 13 16 21 21 21 13z m1217 -53 c-3 -10 -5 -2 -5 17 0
19 2 27 5 18 2 -10 2 -26 0 -35z m-2340 -5 c-3 -7 -5 -2 -5 12 0 14 2 19 5 13
2 -7 2 -19 0 -25z m1075 20 c-6 -7 -25 -22 -44 -32 -39 -23 -32 -13 14 20 38
26 45 29 30 12z m1086 -29 c3 -12 2 -12 -6 0 -9 13 -13 13 -29 0 -17 -13 -17
-13 -4 4 16 20 33 18 39 -4z m-101 -41 c-3 -7 -5 -2 -5 12 0 14 2 19 5 13 2
-7 2 -19 0 -25z m270 -25 c-3 -10 -5 -2 -5 17 0 19 2 27 5 18 2 -10 2 -26 0
-35z m-937 -3 c11 -7 6 -10 -20 -10 -26 0 -31 3 -20 10 8 5 17 10 20 10 3 0
12 -5 20 -10z m252 -13 c-12 -13 -20 -26 -17 -29 3 -2 -2 -5 -10 -5 -11 0 -8
8 12 29 15 15 29 28 32 28 2 0 -5 -10 -17 -23z m-1235 -9 c-3 -8 -6 -5 -6 6
-1 11 2 17 5 13 3 -3 4 -12 1 -19z m-410 -20 c-3 -8 -6 -5 -6 6 -1 11 2 17 5
13 3 -3 4 -12 1 -19z m1006 15 c-7 -2 -19 -2 -25 0 -7 3 -2 5 12 5 14 0 19 -2
13 -5z m-56 -9 c-3 -3 -12 -4 -19 -1 -8 3 -5 6 6 6 11 1 17 -2 13 -5z m306 -1
c-7 -2 -19 -2 -25 0 -7 3 -2 5 12 5 14 0 19 -2 13 -5z m-105 -10 c-15 -2 -42
-2 -60 0 -18 2 -6 4 27 4 33 0 48 -2 33 -4z m285 0 c-13 -2 -33 -2 -45 0 -13
2 -3 4 22 4 25 0 35 -2 23 -4z m884 -45 c-2 -13 -4 -5 -4 17 -1 22 1 32 4 23
2 -10 2 -28 0 -40z m-1450 36 c-3 -3 -12 -4 -19 -1 -8 3 -5 6 6 6 11 1 17 -2
13 -5z m156 -1 c-7 -2 -21 -2 -30 0 -10 3 -4 5 12 5 17 0 24 -2 18 -5z m660 0
c-7 -2 -19 -2 -25 0 -7 3 -2 5 12 5 14 0 19 -2 13 -5z m-730 -10 c-7 -2 -19
-2 -25 0 -7 3 -2 5 12 5 14 0 19 -2 13 -5z m-46 -9 c-3 -3 -12 -4 -19 -1 -8 3
-5 6 6 6 11 1 17 -2 13 -5z m-40 -10 c-3 -3 -12 -4 -19 -1 -8 3 -5 6 6 6 11 1
17 -2 13 -5z m751 -1 c-15 -2 -42 -2 -60 0 -18 2 -6 4 27 4 33 0 48 -2 33 -4z
m489 -45 c-2 -13 -4 -5 -4 17 -1 22 1 32 4 23 2 -10 2 -28 0 -40z m-414 35
c-7 -2 -19 -2 -25 0 -7 3 -2 5 12 5 14 0 19 -2 13 -5z m374 -15 c-3 -8 -6 -5
-6 6 -1 11 2 17 5 13 3 -3 4 -12 1 -19z m104 -9 c-5 -13 -10 -19 -10 -12 -1
15 10 45 15 40 3 -2 0 -15 -5 -28z m36 -1 c-3 -7 -5 -2 -5 12 0 14 2 19 5 13
2 -7 2 -19 0 -25z m-1640 -10 c-3 -8 -6 -5 -6 6 -1 11 2 17 5 13 3 -3 4 -12 1
-19z m1670 -20 c-3 -7 -5 -2 -5 12 0 14 2 19 5 13 2 -7 2 -19 0 -25z m30 -35
c-2 -16 -4 -5 -4 22 0 28 2 40 4 28 2 -13 2 -35 0 -50z m-1907 54 c0 -2 -19
-21 -42 -42 l-43 -40 40 43 c36 39 45 47 45 39z m289 -1 c-10 -9 -149 -76
-149 -71 0 6 131 74 144 75 5 0 7 -2 5 -4z m61 -6 c-8 -5 -19 -10 -25 -10 -5
0 -3 5 5 10 8 5 20 10 25 10 6 0 3 -5 -5 -10z m1597 -72 c-2 -13 -4 -3 -4 22
0 25 2 35 4 23 2 -13 2 -33 0 -45z m-337 22 c8 -5 11 -10 5 -10 -5 0 -17 5
-25 10 -8 5 -10 10 -5 10 6 0 17 -5 25 -10z m257 -37 c-3 -10 -5 -4 -5 12 0
17 2 24 5 18 2 -7 2 -21 0 -30z m-117 17 c8 -5 11 -10 5 -10 -5 0 -17 5 -25
10 -8 5 -10 10 -5 10 6 0 17 -5 25 -10z m-1840 -4 c0 -2 -8 -10 -17 -17 -16
-13 -17 -12 -4 4 13 16 21 21 21 13z m1780 -6 c8 -5 11 -10 5 -10 -5 0 -17 5
-25 10 -8 5 -10 10 -5 10 6 0 17 -5 25 -10z m-1580 -5 c0 -2 -10 -9 -22 -15
-22 -11 -22 -10 -4 4 21 17 26 19 26 11z m60 0 c0 -2 -10 -9 -22 -15 -22 -11
-22 -10 -4 4 21 17 26 19 26 11z m1630 -5 c8 -5 11 -10 5 -10 -5 0 -17 5 -25
10 -8 5 -10 10 -5 10 6 0 17 -5 25 -10z m-30 -20 c8 -5 11 -10 5 -10 -5 0 -17
5 -25 10 -8 5 -10 10 -5 10 6 0 17 -5 25 -10z m-1650 -5 c0 -2 -10 -9 -22 -15
-22 -11 -22 -10 -4 4 21 17 26 19 26 11z m1587 -27 c-3 -8 -6 -5 -6 6 -1 11 2
17 5 13 3 -3 4 -12 1 -19z m108 14 c6 -4 8 -20 4 -37 l-7 -30 -1 32 c0 17 -7
34 -13 36 -7 3 -8 6 -3 6 6 0 15 -3 20 -7z m-2005 -17 c0 -2 -10 -9 -22 -15
-22 -11 -22 -10 -4 4 21 17 26 19 26 11z m1063 -2 c-29 -2 -78 -2 -110 0 -32
2 -8 3 52 3 61 0 87 -1 58 -3z m988 -10 c13 -16 12 -17 -3 -4 -10 7 -18 15
-18 17 0 8 8 3 21 -13z m76 -15 c-3 -7 -5 -2 -5 12 0 14 2 19 5 13 2 -7 2 -19
0 -25z m-1264 15 c-7 -2 -19 -2 -25 0 -7 3 -2 5 12 5 14 0 19 -2 13 -5z m310
0 c-7 -2 -19 -2 -25 0 -7 3 -2 5 12 5 14 0 19 -2 13 -5z m-366 -9 c-3 -3 -12
-4 -19 -1 -8 3 -5 6 6 6 11 1 17 -2 13 -5z m416 -1 c-7 -2 -19 -2 -25 0 -7 3
-2 5 12 5 14 0 19 -2 13 -5z m120 0 c-7 -2 -21 -2 -30 0 -10 3 -4 5 12 5 17 0
24 -2 18 -5z m-576 -9 c-3 -3 -12 -4 -19 -1 -8 3 -5 6 6 6 11 1 17 -2 13 -5z
m506 -1 c-7 -2 -19 -2 -25 0 -7 3 -2 5 12 5 14 0 19 -2 13 -5z m124 1 c-3 -3
-12 -4 -19 -1 -8 3 -5 6 6 6 11 1 17 -2 13 -5z m-1427 -41 c0 -7 -39 17 -46
28 -3 6 5 3 20 -6 14 -10 26 -19 26 -22z m68 12 c6 -14 10 -25 8 -25 -2 0 -11
11 -20 25 -9 14 -13 25 -8 25 5 0 14 -11 20 -25z m1425 18 c-7 -2 -19 -2 -25
0 -7 3 -2 5 12 5 14 0 19 -2 13 -5z m60 -10 c-7 -2 -19 -2 -25 0 -7 3 -2 5 12
5 14 0 19 -2 13 -5z m524 -55 c-2 -13 -4 -3 -4 22 0 25 2 35 4 23 2 -13 2 -33
0 -45z m-460 46 c-3 -3 -12 -4 -19 -1 -8 3 -5 6 6 6 11 1 17 -2 13 -5z m-1521
-32 c-17 -16 -18 -16 -5 5 7 12 15 20 18 17 3 -2 -3 -12 -13 -22z m1561 22
c-3 -3 -12 -4 -19 -1 -8 3 -5 6 6 6 11 1 17 -2 13 -5z m460 -16 c-3 -8 -6 -5
-6 6 -1 11 2 17 5 13 3 -3 4 -12 1 -19z m-2060 -4 c-3 -3 -12 -4 -19 -1 -8 3
-5 6 6 6 11 1 17 -2 13 -5z m2090 -36 c-3 -7 -5 -2 -5 12 0 14 2 19 5 13 2 -7
2 -19 0 -25z m57 24 c3 -5 -1 -9 -9 -9 -8 0 -15 4 -15 9 0 4 4 8 9 8 6 0 12
-4 15 -8z m304 -45 c2 -15 -7 -45 -19 -67 -40 -72 -97 -64 -149 21 l-29 48 47
7 c26 3 63 10 82 14 52 12 65 8 68 -23z m-203 -29 l30 -33 -40 35 c-22 19 -44
39 -50 44 -5 5 -1 4 10 -2 11 -6 33 -25 50 -44z m-1968 -10 c-2 -13 -4 -5 -4
17 -1 22 1 32 4 23 2 -10 2 -28 0 -40z m1528 42 c3 -6 -1 -7 -9 -4 -18 7 -21
14 -7 14 6 0 13 -4 16 -10z m-1588 -92 c-3 -7 -5 -2 -5 12 0 14 2 19 5 13 2
-7 2 -19 0 -25z m-28 -23 c0 -5 -4 -3 -9 5 -5 8 -9 22 -9 30 0 16 17 -16 18
-35z m-388 -39 c-34 -37 -51 -63 -51 -80 0 -14 -4 -26 -8 -26 -10 0 -127 118
-121 123 4 4 182 34 213 36 14 1 6 -13 -33 -53z m2299 28 c0 -2 -9 0 -20 6
-11 6 -20 13 -20 16 0 2 9 0 20 -6 11 -6 20 -13 20 -16z m67 -16 c-3 -8 -6 -5
-6 6 -1 11 2 17 5 13 3 -3 4 -12 1 -19z m190 -4 c-3 -3 -12 -4 -19 -1 -8 3 -5
6 6 6 11 1 17 -2 13 -5z m-170 -56 c-3 -7 -5 -2 -5 12 0 14 2 19 5 13 2 -7 2
-19 0 -25z m40 10 c-3 -8 -6 -5 -6 6 -1 11 2 17 5 13 3 -3 4 -12 1 -19z m60
-35 c-3 -10 -5 -4 -5 12 0 17 2 24 5 18 2 -7 2 -21 0 -30z m-70 2 c0 -8 -4
-12 -9 -9 -5 3 -6 10 -3 15 9 13 12 11 12 -6z m33 -10 c0 -8 -4 -15 -10 -15
-5 0 -7 7 -4 15 4 8 8 15 10 15 2 0 4 -7 4 -15z m-985 -2 c50 -5 64 -9 50 -15
-14 -6 -9 -7 16 -3 78 11 237 -39 336 -106 66 -45 169 -135 200 -175 24 -32
25 -37 14 -82 -26 -104 -75 -242 -118 -324 -48 -95 -111 -161 -213 -226 -59
-38 -252 -93 -410 -117 l-85 -13 83 -1 c72 -1 91 -5 150 -35 79 -39 210 -89
381 -145 118 -38 163 -44 125 -17 -16 12 -16 16 5 59 27 57 86 91 130 76 37
-13 76 -55 96 -102 l16 -38 -52 -54 c-60 -64 -73 -66 -162 -30 -88 36 -337
103 -411 111 -75 8 -110 31 -101 67 6 22 3 26 -24 32 -17 4 -33 11 -36 16 -4
5 -15 14 -26 20 -19 10 -20 9 -9 -11 6 -12 27 -28 45 -36 24 -10 32 -19 29
-31 -3 -13 25 -44 98 -110 57 -50 123 -113 148 -139 40 -41 42 -46 20 -40
-114 29 -280 10 -400 -45 -111 -52 -282 -172 -355 -251 l-68 -73 6 145 c8 188
46 419 93 571 4 14 -12 18 -108 28 -154 17 -345 56 -453 93 -69 24 -105 30
-153 29 -49 -2 -74 3 -118 23 l-55 25 32 29 c35 31 43 78 20 106 -19 23 -67
29 -100 13 l-29 -14 -6 49 c-11 80 2 135 39 173 61 61 162 95 238 81 111 -21
194 -245 138 -371 -21 -48 -21 -48 -1 -30 26 23 43 89 37 137 -3 21 -4 38 -2
38 2 0 15 -21 30 -46 15 -26 56 -76 91 -110 35 -35 61 -64 58 -64 -3 0 -44 18
-90 39 -46 22 -84 38 -84 35 0 -13 105 -68 170 -89 41 -13 102 -35 135 -48 80
-33 200 -57 277 -56 l63 1 -50 9 c-116 21 -249 54 -259 64 -6 7 -17 10 -25 7
-8 -3 -11 0 -7 7 5 7 1 9 -10 4 -12 -4 -15 -3 -10 5 4 7 2 10 -6 7 -8 -3 -41
12 -73 33 -69 45 -134 109 -111 109 8 0 12 -5 9 -10 -4 -6 -1 -7 7 -2 9 6 11
4 5 -5 -6 -9 -4 -11 4 -6 9 6 8 13 -5 27 -12 13 -21 16 -29 9 -9 -7 -22 5 -49
45 -37 57 -67 129 -112 270 -14 44 -27 86 -30 93 -2 8 24 43 58 79 162 169
340 261 573 297 98 15 308 20 420 9z m1008 -28 c-3 -9 -8 -14 -10 -11 -3 3 -2
9 2 15 9 16 15 13 8 -4z m11 -41 c3 -8 2 -12 -4 -9 -6 3 -10 10 -10 16 0 14 7
11 14 -7z m73 -36 c-3 -8 -6 -5 -6 6 -1 11 2 17 5 13 3 -3 4 -12 1 -19z m-37
-6 c0 -12 -3 -12 -15 -2 -8 7 -15 13 -15 15 0 1 7 2 15 2 8 0 15 -7 15 -15z
m49 -66 c-3 -3 -11 5 -18 17 -13 21 -12 21 5 5 10 -10 16 -20 13 -22z m-103
-1231 c67 -20 123 -80 148 -160 5 -18 2 -20 -38 -17 -36 3 -46 0 -60 -19 -35
-50 -10 -114 49 -125 34 -6 34 -7 21 -33 -18 -33 -51 -64 -93 -85 -45 -22
-170 -22 -203 1 -21 14 -23 15 -17 1 5 -13 -11 -19 -91 -33 -53 -9 -114 -21
-135 -25 -38 -8 -39 -8 -32 18 10 39 24 52 56 52 50 0 127 21 143 39 15 16 15
23 -1 84 -17 63 -17 69 2 142 16 67 24 81 62 115 37 33 86 55 129 59 6 1 33
-6 60 -14z m-1286 -1086 c0 -26 44 -111 66 -130 15 -12 16 -12 10 9 -9 27 11
29 55 7 39 -21 52 -56 39 -105 -22 -82 -80 -115 -146 -84 -29 14 -34 22 -34
50 0 18 7 52 16 74 13 32 20 39 35 35 27 -9 24 -2 -21 50 -32 37 -70 102 -70
120 0 1 11 0 25 -3 16 -3 25 -11 25 -23z"/>
<path d="M2695 3079 c21 -6 9 -7 -40 -4 -51 3 -63 2 -45 -5 20 -7 15 -8 -20
-5 -75 9 -309 -62 -293 -88 4 -6 0 -8 -11 -4 -11 5 -15 3 -10 -5 5 -8 2 -9
-10 -5 -10 4 -24 -1 -36 -13 -11 -11 -23 -19 -26 -19 -13 4 -126 -86 -183
-146 l-60 -62 25 -84 c48 -159 104 -286 125 -281 6 2 9 -4 6 -12 -3 -8 0 -19
7 -25 25 -21 23 1 -5 52 -28 50 -101 260 -112 324 -12 64 109 178 271 256 98
47 159 53 241 23 57 -21 64 -13 12 13 -25 13 -62 22 -98 23 -46 1 -50 2 -18 5
22 2 83 13 135 23 52 11 165 24 250 30 209 15 213 18 25 18 -103 0 -149 -3
-130 -9z m-132 -26 c-7 -2 -19 -2 -25 0 -7 3 -2 5 12 5 14 0 19 -2 13 -5z
m-63 -13 c-34 -11 -60 -11 -35 0 11 5 29 8 40 8 16 0 15 -2 -5 -8z m-135 -40
c-27 -12 -43 -12 -25 0 8 5 22 9 30 9 10 0 8 -3 -5 -9z m-355 -248 c-21 -28
-21 -31 -6 -88 8 -32 27 -92 41 -133 14 -41 23 -76 21 -78 -4 -4 -38 90 -74
203 l-20 61 25 32 c31 39 41 41 13 3z m100 -387 c0 -5 -9 5 -20 23 -11 18 -20
38 -20 45 1 14 39 -52 40 -68z"/>
<path d="M3260 2983 c-24 -9 -70 -44 -70 -53 0 -4 21 3 48 15 26 13 58 28 72
34 25 10 25 10 -5 10 -16 -1 -37 -3 -45 -6z"/>
<path d="M2334 2870 c-105 -24 -183 -144 -155 -235 8 -27 9 -25 10 23 1 68 19
110 64 149 86 75 202 65 277 -24 29 -35 31 -35 17 -8 -35 70 -133 114 -213 95z"/>
<path d="M3194 2849 c-18 -5 -49 -27 -71 -48 -106 -106 -70 -277 69 -335 86
-36 201 1 240 79 6 12 -2 7 -19 -11 -44 -47 -90 -67 -153 -67 -84 0 -142 38
-175 115 -37 89 5 192 96 238 77 40 177 16 238 -56 29 -35 31 -36 18 -9 -42
84 -143 123 -243 94z"/>
<path d="M2323 2795 c-45 -19 -73 -69 -73 -128 0 -40 5 -53 33 -83 28 -31 42
-37 84 -41 68 -7 114 20 138 79 46 117 -66 224 -182 173z"/>
<path d="M3183 2761 c-105 -66 -69 -217 54 -228 39 -4 55 0 83 19 101 69 61
212 -63 225 -30 3 -51 -2 -74 -16z"/>
<path d="M2190 2592 c0 -7 19 -33 41 -57 84 -91 201 -94 286 -9 24 24 43 48
43 54 0 6 -15 -6 -32 -26 -93 -105 -248 -95 -319 21 -11 17 -19 24 -19 17z"/>
<path d="M2801 2558 c-38 -20 -36 -35 7 -63 38 -25 42 -25 69 -12 40 21 64 50
54 66 -12 19 -100 25 -130 9z"/>
<path d="M2851 2444 c-1 -28 -59 -54 -122 -54 -54 0 -80 10 -118 44 l-24 21
12 -22 c6 -12 24 -30 41 -39 22 -13 28 -23 24 -39 -8 -32 14 -153 37 -196 47
-94 160 -111 228 -34 37 42 54 99 55 183 1 49 4 63 18 68 18 5 58 50 58 65 0
4 -13 -6 -29 -22 -22 -21 -39 -29 -66 -29 -45 0 -93 24 -105 53 -8 21 -9 21
-9 1z m62 -97 c56 -24 60 -35 41 -118 -13 -57 -24 -81 -49 -106 -76 -76 -189
-10 -211 124 -5 32 -2 42 19 61 27 25 95 50 140 51 15 1 42 -5 60 -12z"/>
<path d="M3386 2415 c-9 -9 -16 -22 -16 -28 0 -6 10 -2 22 11 12 12 19 24 16
27 -3 3 -13 -1 -22 -10z"/>
<path d="M2310 2410 c0 -12 40 -34 48 -26 3 4 -3 13 -14 21 -22 17 -34 19 -34
5z"/>
<path d="M3330 2405 c-10 -12 -10 -15 4 -15 9 0 16 7 16 15 0 8 -2 15 -4 15
-2 0 -9 -7 -16 -15z"/>
<path d="M3421 2391 c-12 -16 -21 -32 -21 -37 0 -10 40 27 51 48 16 30 -8 21
-30 -11z"/>
<path d="M1836 2388 c-22 -31 -20 -74 4 -98 26 -26 51 -25 84 1 50 39 24 119
-39 119 -24 0 -39 -7 -49 -22z"/>
<path d="M2240 2395 c0 -5 55 -35 65 -35 15 0 2 18 -20 28 -27 13 -45 15 -45
7z"/>
<path d="M2185 2360 c-4 -6 8 -10 29 -10 20 0 36 5 36 10 0 6 -13 10 -29 10
-17 0 -33 -4 -36 -10z"/>
<path d="M2215 2225 c33 -28 132 -91 115 -73 -14 15 -142 108 -148 108 -4 -1
11 -16 33 -35z"/>
<path d="M2667 1955 c-4 -8 -2 -17 3 -20 6 -4 10 -4 10 -1 0 2 3 11 6 20 3 9
2 16 -4 16 -5 0 -12 -7 -15 -15z"/>
<path d="M2716 1931 c-4 -7 -5 -15 -2 -18 9 -9 19 4 14 18 -4 11 -6 11 -12 0z"/>
<path d="M2760 1921 c0 -12 5 -21 10 -21 6 0 10 6 10 14 0 8 -4 18 -10 21 -5
3 -10 -3 -10 -14z"/>
<path d="M2960 1912 c0 -5 7 -17 15 -28 20 -26 19 -33 -6 -27 -15 4 -20 2 -18
-6 3 -7 7 -12 9 -11 3 1 17 -3 33 -9 35 -14 36 1 2 52 -25 37 -35 45 -35 29z"/>
<path d="M2890 1821 c0 -11 5 -23 10 -26 6 -3 10 3 10 14 0 11 -4 23 -10 26
-5 3 -10 -3 -10 -14z"/>
<path d="M2836 1794 c-9 -22 3 -32 14 -14 12 19 12 30 1 30 -5 0 -12 -7 -15
-16z"/>
<path d="M2795 1787 c-4 -10 -5 -21 -1 -24 10 -10 18 4 13 24 -4 17 -4 17 -12
0z"/>
<path d="M2590 1555 c1 -26 2 -28 11 -12 8 14 8 22 0 30 -8 8 -11 3 -11 -18z"/>
<path d="M2560 1535 c1 -26 2 -28 11 -12 8 14 8 22 0 30 -8 8 -11 3 -11 -18z"/>
<path d="M2598 1434 c-5 -4 -8 -16 -8 -28 0 -14 3 -17 11 -9 6 6 9 19 7 28 -1
9 -6 13 -10 9z"/>
<path d="M2550 1396 c0 -14 5 -26 10 -26 6 0 10 9 10 19 0 11 -4 23 -10 26 -6
4 -10 -5 -10 -19z"/>
<path d="M3833 1538 c-27 -13 -55 -70 -47 -95 35 -95 194 -68 194 33 0 9 -13
29 -29 45 -31 31 -76 37 -118 17z"/>
</g>
</svg>
