<svg width="48" height="46" viewBox="0 0 128 124" fill="none" xmlns="http://www.w3.org/2000/svg">
<path d="M64 0C28 0 0 28 0 64C0 106 38 124 44 124C48 124 48 122 48 120V110C34 114 28 106 26 100C26 100 26 98 22 94C20 92 12 88 20 88C26 88 30 96 30 96C36 104 44 102 48 100C48 96 52 92 52 92C36 90 24 84 24 62C24 54 26 48 30 44C30 44 26 36 30 26C30 26 40 26 48 34C54 30 74 30 80 34C88 26 98 26 98 26C102 40 98 44 98 44C102 48 104 54 104 62C104 84 90 90 76 92C78 94 80 98 80 104V120C80 122 80 124 84 124C90 124 128 106 128 64C128 28 100 0 64 0Z" fill="#A5A6F6"/>
</svg>
