<svg width="48" height="48" viewBox="0 0 128 128" fill="none" xmlns="http://www.w3.org/2000/svg">
<path d="M95.7315 0H31.8958C14.3086 0 0 14.2605 0 31.7885V95.9306C0 113.458 14.3086 127.72 31.8958 127.72H95.7315C113.319 127.72 127.627 113.457 127.627 95.9306V31.7884C127.627 14.2605 113.319 0 95.7315 0ZM115.814 95.9304C115.814 106.966 106.805 115.945 95.7316 115.945H31.8959C20.8221 115.945 11.8134 106.966 11.8134 95.9304V54.5034H37.0481C35.2058 58.4001 34.1696 62.7471 34.1696 67.3313C34.1696 83.982 47.7606 97.5261 64.4667 97.5261C81.1724 97.5261 94.7637 83.982 94.7637 67.3313C94.7637 62.7471 93.7276 58.4 91.8849 54.5034H115.814V95.9304H115.814ZM51.8897 67.3316C51.8897 60.4209 57.5315 54.7974 64.4668 54.7974C71.4024 54.7974 77.0438 60.421 77.0438 67.3316C77.0438 74.2437 71.4024 79.8661 64.4668 79.8661C57.5316 79.866 51.8897 74.2437 51.8897 67.3316ZM115.814 42.7301H81.9998C77.046 39.2142 70.9976 37.1372 64.4668 37.1372C57.936 37.1372 51.8869 39.2142 46.9343 42.7301H11.8134V31.7885C11.8134 20.752 20.8221 11.7736 31.8959 11.7736H95.7316C106.805 11.7736 115.814 20.752 115.814 31.7885V42.7301ZM103.013 18.914H92.0629C90.1132 18.914 88.5189 20.5036 88.5189 22.4461V33.3601C88.5189 35.3025 90.113 36.8922 92.0629 36.8922H103.013C104.963 36.8922 106.557 35.3025 106.557 33.3601V22.4461C106.557 20.5036 104.963 18.914 103.013 18.914Z" fill="#A5A6F6"/>
</svg>
